<svg width="62" height="62" viewBox="0 0 62 62" fill="none" xmlns="http://www.w3.org/2000/svg">
<path d="M49.0833 7.75H12.9167C10.075 7.75 7.75 10.075 7.75 12.9167V31C7.75 33.8417 10.075 36.1667 12.9167 36.1667H49.0833C51.925 36.1667 54.25 33.8417 54.25 31V12.9167C54.25 10.075 51.925 7.75 49.0833 7.75ZM49.0833 23.25H38.75C38.75 27.435 35.185 31 31 31C26.815 31 23.25 27.435 23.25 23.25H12.9167V12.9167H49.0833V23.25ZM38.75 41.3333H54.25V49.0833C54.25 51.925 51.925 54.25 49.0833 54.25H12.9167C10.075 54.25 7.75 51.925 7.75 49.0833V41.3333H23.25C23.25 45.6217 26.7117 49.0833 31 49.0833C35.2883 49.0833 38.75 45.6217 38.75 41.3333Z" fill="black"/>
</svg>
