<svg width="62" height="62" viewBox="0 0 62 62" fill="none" xmlns="http://www.w3.org/2000/svg">
<path d="M10.3333 15.5H5.16666V51.6667C5.16666 54.5083 7.49166 56.8333 10.3333 56.8333H46.5V51.6667H10.3333V15.5ZM51.6667 5.16666H20.6667C17.825 5.16666 15.5 7.49166 15.5 10.3333V41.3333C15.5 44.175 17.825 46.5 20.6667 46.5H51.6667C54.5083 46.5 56.8333 44.175 56.8333 41.3333V10.3333C56.8333 7.49166 54.5083 5.16666 51.6667 5.16666ZM49.0833 28.4167H23.25V23.25H49.0833V28.4167ZM38.75 38.75H23.25V33.5833H38.75V38.75ZM49.0833 18.0833H23.25V12.9167H49.0833V18.0833Z" fill="black"/>
</svg>
