<?xml version="1.0" standalone="no"?>
<!DOCTYPE svg PUBLIC "-//W3C//DTD SVG 20010904//EN"
 "http://www.w3.org/TR/2001/REC-SVG-20010904/DTD/svg10.dtd">
<svg version="1.0" xmlns="http://www.w3.org/2000/svg"
 width="76.000000pt" height="77.000000pt" viewBox="0 0 76.000000 77.000000"
 preserveAspectRatio="xMidYMid meet">

<g transform="translate(0.000000,77.000000) scale(0.100000,-0.100000)"
fill="#000000" stroke="none">
<path d="M294 699 c-56 -16 -88 -75 -73 -134 6 -20 62 -84 167 -188 154 -152
160 -157 200 -157 60 0 102 39 109 103 l6 48 -164 163 c-100 100 -174 166
-189 169 -14 3 -39 1 -56 -4z m148 -96 l68 -67 -62 -63 -62 -63 -59 58 c-95
93 -107 133 -57 184 48 47 86 36 172 -49z m155 -155 c87 -89 97 -123 50 -175
-15 -17 -32 -23 -60 -23 -35 0 -47 7 -111 70 l-71 69 60 61 c33 33 62 60 65
60 3 0 33 -28 67 -62z"/>
<path d="M287 643 c-16 -15 -5 -24 21 -18 22 4 35 0 56 -20 27 -25 46 -32 46
-17 0 5 -13 20 -28 35 -27 26 -79 37 -95 20z"/>
<path d="M151 393 c-75 -37 -110 -143 -73 -226 59 -133 247 -136 311 -5 27 57
27 104 -2 159 -43 80 -151 114 -236 72z m149 -22 c38 -20 80 -73 80 -102 0
-18 -11 -19 -145 -19 -134 0 -145 1 -145 19 0 29 43 85 80 103 45 23 87 23
130 -1z m80 -156 c0 -26 -28 -72 -56 -94 -78 -61 -211 -17 -230 77 l-6 32 146
0 c125 0 146 -2 146 -15z"/>
</g>
</svg>
